# xmcd CD database file
#
# Track frame offsets:
#	150
#	23127
#	49797
#	65600
#	84670
#	107900
#	134272
#	149185
#
# Disc length: 2154 seconds
#
# Revision: 0
# Processed by: cddbd v1.5.1PL0 Copyright (c) Steve Scherf et al.
# Submitted via: NeoAudio 9.9.9
#
DISCID=77086808
DTITLE=Carlos Ugueto - La vida es una comica
DYEAR=1994
DGENRE=Merengue
TTITLE0=chevere - cc
TTITLE1=salsa con reggae - salsa
TTITLE2=sabroso - merenque
TTITLE3=descarga - mambo
TTITLE4=medley - respirando - merenque
TTITLE5=medley - l'anno che verra - merenque
TTITLE6=candelo's - salsa
TTITLE7=candalo's  - merenque
EXTD=YEAR: 1994
EXTT0=
EXTT1=
EXTT2=
EXTT3=
EXTT4=
EXTT5=
EXTT6=
EXTT7=
PLAYORDER=
